<?xml version="1.0" encoding="UTF-8"?>
<svg version="1.1" xmlns="http://www.w3.org/2000/svg" width="32" height="32">
<path d="M0 0 C0.74362793 0.01047363 1.48725586 0.02094727 2.25341797 0.03173828 C3.46191406 0.04140625 3.46191406 0.04140625 4.69482422 0.05126953 C5.95746094 0.07640625 5.95746094 0.07640625 7.24560547 0.10205078 C8.51984375 0.11558594 8.51984375 0.11558594 9.81982422 0.12939453 C11.9202043 0.15299431 14.02043991 0.18886595 16.12060547 0.22705078 C16.12060547 0.88705078 16.12060547 1.54705078 16.12060547 2.22705078 C14.97720703 2.28763672 13.83380859 2.34822266 12.65576172 2.41064453 C11.16486242 2.49503506 9.67397772 2.5796838 8.18310547 2.66455078 C7.05098633 2.72352539 7.05098633 2.72352539 5.89599609 2.78369141 C2.20116359 2.66743102 2.20116359 2.66743102 -0.87939453 4.22705078 C-0.97856024 5.84962622 -1.0101923 7.47644909 -1.01220703 9.10205078 C-1.01414063 10.57931641 -1.01414063 10.57931641 -1.01611328 12.08642578 C-1.01224609 13.12283203 -1.00837891 14.15923828 -1.00439453 15.22705078 C-1.00826172 16.26345703 -1.01212891 17.29986328 -1.01611328 18.36767578 C-1.01482422 19.35251953 -1.01353516 20.33736328 -1.01220703 21.35205078 C-1.0110791 22.26212891 -1.00995117 23.17220703 -1.00878906 24.10986328 C-1.11499462 26.21233558 -1.11499462 26.21233558 0.12060547 27.22705078 C1.74318091 27.32621649 3.37000378 27.35784855 4.99560547 27.35986328 C5.98044922 27.36115234 6.96529297 27.36244141 7.97998047 27.36376953 C9.53458984 27.35796875 9.53458984 27.35796875 11.12060547 27.35205078 C12.15701172 27.35591797 13.19341797 27.35978516 14.26123047 27.36376953 C15.24607422 27.36248047 16.23091797 27.36119141 17.24560547 27.35986328 C18.15568359 27.35873535 19.06576172 27.35760742 20.00341797 27.35644531 C22.10589027 27.46265087 22.10589027 27.46265087 23.12060547 26.22705078 C23.35424428 24.37813132 23.53364182 22.52217047 23.68310547 20.66455078 C23.76689453 19.65263672 23.85068359 18.64072266 23.93701172 17.59814453 C24.02789063 16.42445312 24.02789063 16.42445312 24.12060547 15.22705078 C24.78060547 15.22705078 25.44060547 15.22705078 26.12060547 15.22705078 C26.17447176 17.35177654 26.21333618 19.4768873 26.24560547 21.60205078 C26.26880859 22.78541016 26.29201172 23.96876953 26.31591797 25.18798828 C26.12060547 28.22705078 26.12060547 28.22705078 24.12060547 30.22705078 C21.53857422 30.48583984 21.53857422 30.48583984 18.30810547 30.49267578 C17.15052734 30.49525391 15.99294922 30.49783203 14.80029297 30.50048828 C13.58599609 30.49275391 12.37169922 30.48501953 11.12060547 30.47705078 C9.90630859 30.48478516 8.69201172 30.49251953 7.44091797 30.50048828 C5.70455078 30.49662109 5.70455078 30.49662109 3.93310547 30.49267578 C2.33402344 30.48929199 2.33402344 30.48929199 0.70263672 30.48583984 C-1.87939453 30.22705078 -1.87939453 30.22705078 -3.87939453 28.22705078 C-4.13818359 25.64501953 -4.13818359 25.64501953 -4.14501953 22.41455078 C-4.14759766 21.25697266 -4.15017578 20.09939453 -4.15283203 18.90673828 C-4.14509766 17.69244141 -4.13736328 16.47814453 -4.12939453 15.22705078 C-4.13712891 14.01275391 -4.14486328 12.79845703 -4.15283203 11.54736328 C-4.15025391 10.38978516 -4.14767578 9.23220703 -4.14501953 8.03955078 C-4.14276367 6.97349609 -4.14050781 5.90744141 -4.13818359 4.80908203 C-3.83032777 1.73749414 -3.21696157 0.38864306 0 0 Z " fill="#000000" transform="translate(4.87939453125,0.77294921875)"/>
<path d="M0 0 C1.11568359 0.33837891 1.11568359 0.33837891 2.25390625 0.68359375 C2.73608729 5.60184036 3.01622223 8.645997 0.00390625 12.74609375 C-2.74609375 14.68359375 -2.74609375 14.68359375 -6.74609375 14.68359375 C-8.57312351 15.75041061 -8.57312351 15.75041061 -10.24609375 17.18359375 C-13.20719195 19.60631046 -13.58206324 19.68359375 -17.74609375 19.68359375 C-17.25070214 11.75732804 -10.2132206 5.91974298 -4.7734375 0.8359375 C-2.74609375 -0.31640625 -2.74609375 -0.31640625 0 0 Z M-2.74609375 2.68359375 C-4.23133017 4.11482157 -5.70909837 5.55380264 -7.18359375 6.99609375 C-8.00730469 7.79660156 -8.83101562 8.59710938 -9.6796875 9.421875 C-11.94012852 11.58830183 -11.94012852 11.58830183 -12.74609375 14.68359375 C-9.06539488 13.14715523 -6.75834171 10.9020843 -3.99609375 8.05859375 C-3.196875 7.24132812 -2.39765625 6.4240625 -1.57421875 5.58203125 C-0.9709375 4.95554687 -0.36765625 4.3290625 0.25390625 3.68359375 C-0.73609375 3.35359375 -1.72609375 3.02359375 -2.74609375 2.68359375 Z " fill="#000000" transform="translate(29.74609375,0.31640625)"/>
</svg>
